<svg width="64" height="64" viewBox="0 0 64 64" fill="none" xmlns="http://www.w3.org/2000/svg">
<rect width="64" height="64" rx="20" fill="black"/>
<path d="M42.311 16.0027C42.8968 15.417 43.8463 15.417 44.4321 16.0027L48.4135 19.9832C48.9991 20.5689 48.999 21.5185 48.4135 22.1043L43.0766 27.4402C42.132 28.3852 42.8019 30.0008 44.1381 30.0008H46.8042C47.6326 30.0008 48.3041 30.6724 48.3042 31.5008V46.8904C48.3042 47.7188 47.6326 48.3904 46.8042 48.3904H41.1743C40.3459 48.3904 39.6743 47.7188 39.6743 46.8904V34.4637C39.6742 33.1274 38.0587 32.4583 37.1137 33.4031L23.1176 47.3982C22.5319 47.9839 21.5823 47.9839 20.9965 47.3982L17.0161 43.4178C16.4305 42.832 16.4304 41.8824 17.0161 41.2967L31.0932 27.2205C32.0377 26.2756 31.3687 24.6602 30.0327 24.6599H17.4438C16.6154 24.6599 15.9438 23.9884 15.9438 23.1599V17.531C15.9439 16.7026 16.6154 16.031 17.4438 16.031H32.7251C33.5535 16.031 34.225 16.7026 34.2251 17.531V20.4666C34.2251 21.8029 35.8406 22.472 36.7856 21.5271L42.311 16.0027Z" fill="#FF7700"/>
</svg>
