<svg width="58" height="14" viewBox="0 0 58 14" fill="none" xmlns="http://www.w3.org/2000/svg">
<path d="M2.904 11V4.28H5.136V11H2.904ZM0.744 11V9.212H7.14V11H0.744ZM1.584 6.068V4.28H4.02V6.068H1.584ZM2.868 3.524V1.64H5.172V3.524H2.868ZM8.35669 11V2.624H11.1767L13.1207 8.168L12.9287 5.264V2.624H15.0647V11H12.2567L10.2887 5.612L10.5047 8.348V11H8.35669ZM17.8054 11L15.8974 2.624H18.2614L19.2214 7.1L19.5334 9.236L19.8334 7.1L20.8054 2.624H23.1574L21.2254 11H17.8054ZM24.1341 11V2.624H30.5421V4.532H26.4981V5.78H29.0661V7.64H26.4981V9.08H30.5901V11H24.1341Z" fill="#081422"/>
<path d="M39.5009 2.14641C39.6962 1.95122 40.0127 1.95118 40.2079 2.14641L41.1982 3.13664C41.3931 3.33191 41.3932 3.64851 41.1982 3.84367L39.8778 5.16301C39.6303 5.41043 39.7098 5.82847 40.0517 5.90324C40.2885 5.95503 40.5347 5.98234 40.787 5.98234C41.0208 5.98246 41.2264 6.15969 41.2265 6.39348V10.5966C41.2264 10.8726 41.0025 11.0965 40.7265 11.0966H39.3261C39.05 11.0966 38.8262 10.8727 38.8261 10.5966V7.4218C38.8261 6.97638 38.2876 6.75341 37.9726 7.06828L33.8427 11.1982C33.6475 11.3933 33.3309 11.3932 33.1357 11.1982L32.1464 10.2079C31.9512 10.0127 31.9512 9.69612 32.1464 9.5009L36.2968 5.35051C36.6116 5.03559 36.3885 4.49724 35.9433 4.49699H32.7255C32.4494 4.49699 32.2256 4.27306 32.2255 3.99699V2.5966C32.2255 2.32046 32.4494 2.0966 32.7255 2.0966H36.9257C37.1434 2.09673 37.3105 2.28704 37.3105 2.50481C37.3105 2.79007 37.3455 3.06695 37.411 3.33195C37.4939 3.66697 37.9052 3.74088 38.1493 3.49699L39.5009 2.14641Z" fill="#FF7700"/>
<path d="M44.904 11V4.28H47.136V11H44.904ZM42.744 11V9.212H49.14V11H42.744ZM43.584 6.068V4.28H46.02V6.068H43.584ZM44.868 3.524V1.64H47.172V3.524H44.868ZM50.0447 11L52.0007 6.728L50.0807 2.624H52.6727L53.3807 4.244L53.7407 5.54L54.1247 4.244L54.8567 2.624H57.3527L55.4207 6.68L57.4127 11H54.9047L54.1607 9.416L53.7287 8.228L53.2967 9.416L52.5767 11H50.0447Z" fill="#081422"/>
</svg>
